# xmcd
#
# Track frame offsets: 
#        150
#        14177
#        27068
#
# Disc length: 544 seconds
#
# Revision: 0
# Processed by: cddbd v1.4PL0 Copyright (c) Steve Scherf et al.
# Submitted via: ExactAudioCopy v0.90b4
#
DISCID=1d021e03
DTITLE=The Pink Torpedoes - The Pink Torpedoes
DYEAR=2003
DGENRE=Blues
TTITLE0=Blue suede shoes
TTITLE1=Blues before sunrise
TTITLE2=Looking for better days
EXTD=Amateur CD bought from a teenage performer at the Queen Victoria 
EXTD=Market, Melbourne, 5th Jan 2003\nLead Guitar - vocals: Dan Morgan
EXTD=\nLap Steel Guitar: Eliot Baring\nDrums: Alex Baring\nBass: Ken N
EXTD=aughton
EXTT0=
EXTT1=
EXTT2=
PLAYORDER=
